<svg width="121" height="56" viewBox="0 0 121 56" fill="none" xmlns="http://www.w3.org/2000/svg">
<path d="M40.64 27.2C39.6 27.68 38.64 28 37.6 28.16C38.72 23.52 40.16 18.8 41.28 14.8C43.92 5.92 44.8 2.72 43.92 1.52C43.68 1.2 43.36 1.04 43.04 1.04C41.36 1.04 38.72 4.72 31.68 15.2C29.36 18.64 26.88 22.24 24.4 25.76C21.04 24.88 17.84 24.08 16.24 24.08C13.68 24.08 11.68 26.08 10.64 27.2L10.48 27.28C10.24 27.6 10.24 28 10.48 28.32C10.8 28.56 11.28 28.56 11.52 28.32L11.68 28.16C12.56 27.2 14.32 25.52 16.24 25.52C17.6 25.52 20.48 26.16 23.52 27.04C21.36 30 19.2 32.96 17.04 35.6C11.44 42.4 7.2 45.92 4.32 45.92C3.12 45.92 2.32 45.12 2.08 44.88C1.76 44.64 1.36 44.64 1.04 44.88C0.8 45.2 0.8 45.6 1.04 45.92C1.44 46.32 2.64 47.28 4.32 47.28C9.76 47.28 17.52 37.92 25.04 27.36C25.44 27.52 25.92 27.6 26.4 27.76C30.32 28.8 33.76 29.76 35.2 29.76C35.36 29.76 35.6 29.76 35.76 29.76C35.44 31.28 35.12 32.8 34.88 34.24C33.6 42 34.08 46.88 36.48 49.28C36.64 49.44 36.8 49.52 36.96 49.52C37.2 49.52 37.36 49.44 37.52 49.28C37.76 49.04 37.76 48.56 37.52 48.24C34.56 45.36 35.44 37.76 37.28 29.6C38.64 29.44 39.92 29.12 41.28 28.48C41.6 28.32 41.76 27.92 41.6 27.6C41.44 27.2 41.04 27.04 40.64 27.2ZM35.2 28.32C34 28.32 30.32 27.36 26.72 26.4C26.48 26.32 26.16 26.24 25.92 26.16C28.24 22.8 30.64 19.28 32.8 16C35.44 12.16 37.6 8.88 39.44 6.4C41.52 3.68 42.48 2.8 42.8 2.56C42.88 2.96 42.8 3.92 42.24 6.16C41.76 8.4 40.88 11.2 39.92 14.4C38.72 18.64 37.28 23.52 36.08 28.32C35.84 28.32 35.52 28.32 35.2 28.32ZM69.0688 43.92C68.9088 43.92 68.0288 42.8 65.3888 39.36L63.7088 37.2L65.2288 35.6C67.0688 33.6 67.9488 32 68.0288 30.32C68.1088 28.32 67.4688 27.04 66.6688 27.76C66.3488 28.08 66.3488 28.24 66.5088 28.72C67.0688 30.56 66.3488 32.32 63.9488 34.88L62.9888 36L62.5088 35.2C61.0688 32.96 59.5488 29.2 59.1488 27.12C59.0688 26.4 59.0688 26.48 63.2288 21.6C67.3088 16.88 68.7488 14.56 69.3088 12.16C69.5488 10.8 69.3888 9.92 68.6688 9.2C68.1888 8.8 68.1088 8.64 67.5488 8.64C67.3888 8.64 67.1488 8.64 66.9088 8.64C64.5888 8.8 62.1888 10.4 60.1888 13.04C59.0688 14.48 58.5888 15.6 57.8688 17.76C57.4688 19.2 57.4688 19.52 57.3888 22.8V26.24L56.3488 27.52C53.3088 31.28 51.0688 35.36 50.8288 37.52C50.3488 42 55.5488 42.72 61.2287 39.04L62.6688 38.08L63.0688 38.64C63.9488 39.84 66.9888 43.76 67.6288 44.4C68.3488 45.2 68.9088 45.36 69.2288 44.88C69.4688 44.64 69.3888 43.92 69.0688 43.92ZM62.4288 12.72C63.9488 11.04 65.3888 10.24 66.8288 10.08C67.0688 10.08 67.2288 10 67.3088 10C67.7088 10 67.7888 10.16 67.8688 10.48C68.3488 11.6 67.3888 13.92 65.5488 16.48C64.5888 17.84 64.1088 18.48 60.8288 22.32C59.7888 23.44 58.9088 24.4 58.8288 24.4C58.7488 24.4 58.7488 23.52 58.7488 22.56C58.7488 18.48 59.8688 15.28 62.4288 12.72ZM61.7088 37.04C61.6288 37.04 61.2287 37.36 60.7488 37.68C59.7088 38.4 57.7888 39.36 56.6688 39.68C56.1088 39.84 55.1488 40 54.5088 40C53.4688 40 53.3088 39.92 52.8288 39.44C52.2688 38.96 52.2688 38.88 52.2688 37.92C52.2688 36.96 52.4288 36.56 53.2288 34.88C53.7888 33.84 54.6688 32.32 55.1488 31.52C56.2688 29.92 57.7088 28.08 57.7888 28.16C57.8688 28.16 58.1088 28.96 58.4288 29.84C59.0688 31.76 59.9488 33.6 61.0688 35.6C61.4688 36.32 61.7888 36.96 61.7088 37.04ZM89.5169 53.36C91.5969 51.36 93.7569 48.32 95.8369 45.04C96.8769 44.64 97.9969 44.32 99.1969 43.92C106.877 41.2 115.677 38.08 120.157 33.68C120.397 33.36 120.397 32.96 120.157 32.64C119.837 32.4 119.357 32.4 119.117 32.64C114.877 36.88 106.317 39.92 98.7169 42.56C98.0769 42.72 97.5169 42.96 96.9569 43.12C101.117 36.32 104.477 29.12 104.717 28.64C104.877 28.32 104.717 27.92 104.397 27.68C104.157 27.52 103.757 27.6 103.517 27.84C100.157 31.92 90.4769 42.32 85.4369 42.32C84.1569 42.32 83.1969 41.84 82.5569 40.88C81.8369 39.84 81.5169 38.4 81.5169 36.48C81.5169 30.72 84.7169 22 89.3569 14.88C91.9169 11.12 94.7169 7.92 97.5969 5.76C100.717 3.28 103.917 2.08 106.957 2.08C107.997 2.08 108.797 2.4 109.277 3.12C109.757 3.84 109.997 4.88 109.997 6.24C109.997 12.88 103.997 23.44 98.9569 23.44C97.7569 23.44 96.2369 22.48 96.2369 21.68C96.2369 21.28 95.9169 20.96 95.5169 20.96C95.1169 20.96 94.7969 21.28 94.7969 21.68C94.7969 22.48 95.3569 23.36 96.2369 24C97.0369 24.56 98.0769 24.88 98.9569 24.88C105.277 24.88 111.437 13.04 111.437 6.24C111.437 4.56 111.117 3.28 110.477 2.32C109.677 1.2 108.477 0.639997 106.957 0.639997C103.597 0.639997 100.157 2 96.7169 4.64C93.7569 6.88 90.7969 10.16 88.1569 14.08C83.3569 21.44 80.1569 30.4 80.1569 36.48C80.1569 38.72 80.5569 40.4 81.3569 41.68C82.2369 43.04 83.6769 43.76 85.4369 43.76C88.3169 43.76 92.4769 41.2 97.6769 36.24C98.8769 35.04 100.077 33.84 101.037 32.72C99.5169 35.84 97.2769 40 94.8769 43.92C90.3969 45.52 86.7969 47.04 85.0369 48.72C82.7969 50.96 82.7969 53.36 83.9969 54.48C84.3969 54.96 85.0369 55.2 85.8369 55.2C86.8769 55.2 88.1569 54.72 89.5169 53.36ZM88.5569 52.32C86.8769 53.92 85.5169 54.08 84.9569 53.52C84.3169 52.88 84.5569 51.28 86.0769 49.76C87.3569 48.4 90.1569 47.2 93.5969 45.92C91.8369 48.48 90.1569 50.72 88.5569 52.32Z" fill="black"/>
</svg>
